<?xml version="1.0" encoding="UTF-8" standalone="no"?>
<!-- Created with Inkscape (http://www.inkscape.org/) -->

<svg
   xmlns:dc="http://purl.org/dc/elements/1.1/"
   xmlns:cc="http://creativecommons.org/ns#"
   xmlns:rdf="http://www.w3.org/1999/02/22-rdf-syntax-ns#"
   xmlns:svg="http://www.w3.org/2000/svg"
   xmlns="http://www.w3.org/2000/svg"
   xmlns:sodipodi="http://sodipodi.sourceforge.net/DTD/sodipodi-0.dtd"
   xmlns:inkscape="http://www.inkscape.org/namespaces/inkscape"
   width="210mm"
   height="297mm"
   viewBox="0 0 744.09448819 1052.3622047"
   id="svg2"
   version="1.1"
   inkscape:version="0.91 r13725"
   sodipodi:docname="appIcon.svg">
  <defs
     id="defs4" />
  <sodipodi:namedview
     id="base"
     pagecolor="#ffffff"
     bordercolor="#666666"
     borderopacity="1.0"
     inkscape:pageopacity="0.0"
     inkscape:pageshadow="2"
     inkscape:zoom="0.98994949"
     inkscape:cx="194.71536"
     inkscape:cy="488.45671"
     inkscape:document-units="px"
     inkscape:current-layer="layer1"
     showgrid="false"
     inkscape:window-width="1920"
     inkscape:window-height="1017"
     inkscape:window-x="-8"
     inkscape:window-y="-8"
     inkscape:window-maximized="1" />
  <metadata
     id="metadata7">
    <rdf:RDF>
      <cc:Work
         rdf:about="">
        <dc:format>image/svg+xml</dc:format>
        <dc:type
           rdf:resource="http://purl.org/dc/dcmitype/StillImage" />
        <dc:title></dc:title>
      </cc:Work>
    </rdf:RDF>
  </metadata>
  <g
     inkscape:label="Ebene 1"
     inkscape:groupmode="layer"
     id="layer1">
    <rect
       style="fill:#18abff;fill-opacity:1;fill-rule:evenodd;stroke:#18abff;stroke-width:15;stroke-linecap:butt;stroke-linejoin:miter;stroke-miterlimit:4;stroke-dasharray:none;stroke-opacity:1"
       id="rect3347"
       width="239.70409"
       height="239.70409"
       x="179.65819"
       y="393.59375"
       ry="45.456863"
       inkscape:export-xdpi="35.34"
       inkscape:export-ydpi="35.34" />
    <path
       style="fill:#000000"
       d="m 230.5515,601.48249 c -4.07642,-1.77621 -9.14676,-7.73841 -10.49398,-12.33985 -0.76941,-2.62792 -1.00978,-24.0709 -0.79511,-70.93128 l 0.30768,-67.1647 3,-4.24624 c 5.28119,-7.47507 8.27912,-8.37518 29.15094,-8.75241 l 18.15094,-0.32805 1.10696,-4.39616 c 0.60883,-2.41788 2.56205,-6.0534 4.34048,-8.07892 11.10604,-12.64908 31.49855,-8.12158 36.26442,8.05134 l 1.20225,4.07984 18.392,0.50824 c 20.14406,0.55666 22.28711,1.10731 27.24624,7.00091 4.17547,4.96226 4.7743,8.93282 4.44766,29.49085 l -0.30189,19 -6.33731,0.29998 c -3.8114,0.18042 -6.90038,-0.16732 -7.75,-0.87244 -1.11944,-0.92904 -1.4127,-4.84213 -1.4127,-18.84999 0,-12.41587 -0.35718,-18.03473 -1.2,-18.87755 -0.77007,-0.77007 -4.71111,-1.2 -11,-1.2 -10.51389,0 -10.9932,0.28874 -8.3,5 0.78602,1.375 1.44508,3.5125 1.46456,4.75 l 0.0354,2.25 -36.99999,0 c -41.44975,0 -39.14399,0.4706 -35.05689,-7.15504 1.0687,-1.99398 1.6687,-3.89981 1.33333,-4.23519 -1.17579,-1.17578 -19.83291,-0.65331 -21.07644,0.59023 -1.77636,1.77636 -1.72796,127.70731 0.05,130.09975 1.10081,1.48126 4.11441,1.71294 25.25,1.94113 l 24,0.25912 0.29206,7.75 0.29207,7.75 -26.29207,-0.0391 c -19.45986,-0.029 -27.07647,-0.38093 -29.31065,-1.35443 z m 66.22934,-156.85643 c 3.0302,-3.31069 3.60441,-6.23986 1.87776,-9.57884 -1.70343,-3.29406 -3.35533,-4.17116 -7.85585,-4.17116 -6.7747,0 -10.06385,7.76666 -5.66008,13.36514 2.74424,3.48873 8.61943,3.68302 11.63817,0.38486 z m -10.46811,126.99279 c -13.88345,-13.89147 -25.24264,-25.93546 -25.24264,-26.76443 0,-1.74151 24.95311,-26.97836 26.67504,-26.97836 0.63097,0 6.42892,5.625 12.88431,12.5 6.4554,6.875 12.2399,12.5 12.85444,12.5 0.61455,0 15.73534,-12.13929 33.60178,-26.97621 17.86643,-14.83691 33.16786,-26.98691 34.00318,-27 0.83532,-0.0131 5.89475,4.36868 11.24318,9.73725 l 9.72441,9.76104 -44.24734,44.23896 c -24.33604,24.33143 -44.69877,44.23896 -45.25053,44.23896 -0.55175,0 -12.36237,-11.36575 -26.24583,-25.25721 z"
       id="path4149"
       inkscape:connector-curvature="0"
       inkscape:export-xdpi="35.34"
       inkscape:export-ydpi="35.34" />
  </g>
</svg>
